<svg class="svg-symbols" style="position: absolute; clip: rect(0, 0, 0, 0);" xmlns="http://www.w3.org/2000/svg" xmlns:xlink="http://www.w3.org/1999/xlink">
<defs>
<path id="more.svg-b" d="M703 3845a6 6 0 0 1 8.8-5.3l1.46-1.46A8 8 0 0 0 701 3845h-3l4 4 4-4h-3zm13-4l-4 4h3a6 6 0 0 1-8.8 5.3l-1.46 1.46A8 8 0 0 0 717 3845h3l-4-4z"/><linearGradient id="more.svg-a" x1="702.06" x2="713.42" y1="3838.72" y2="3848.32" gradientUnits="userSpaceOnUse"><stop offset="0" stop-color="#fa6e71"/><stop offset="1" stop-color="#c84080"/></linearGradient>
</defs>
<symbol id="icon-svg-call-answer" viewBox="0 0 348.077 348.077"><path d="M340.273 275.083l-53.755-53.761c-10.707-10.664-28.438-10.34-39.518.744l-27.082 27.076a792.327 792.327 0 0 1-5.344-2.973c-17.102-9.476-40.509-22.464-65.14-47.113-24.704-24.701-37.704-48.144-47.209-65.257-1.003-1.813-1.964-3.561-2.913-5.221l18.176-18.149 8.936-8.947c11.097-11.1 11.403-28.826.721-39.521L73.39 8.194c-10.682-10.68-28.421-10.356-39.518.744l-15.15 15.237.414.411c-5.08 6.482-9.325 13.958-12.484 22.02C3.74 54.28 1.927 61.603 1.098 68.941-6 127.785 20.89 181.564 93.866 254.541c100.875 100.868 182.167 93.248 185.674 92.876 7.638-.913 14.958-2.738 22.397-5.627 7.992-3.122 15.463-7.361 21.941-12.43l.331.294 15.348-15.029c11.074-11.098 11.393-28.83.716-39.542z"/></symbol>
<symbol id="icon-svg-facebook-logo" viewBox="0 0 96.124 96.123"><path d="M72.089.02L59.624 0C45.62 0 36.57 9.285 36.57 23.656v10.907H24.037a1.96 1.96 0 0 0-1.96 1.961v15.803a1.96 1.96 0 0 0 1.96 1.96H36.57v39.876a1.96 1.96 0 0 0 1.96 1.96h16.352a1.96 1.96 0 0 0 1.96-1.96V54.287h14.654a1.96 1.96 0 0 0 1.96-1.96l.006-15.803a1.963 1.963 0 0 0-1.961-1.961H56.842v-9.246c0-4.444 1.059-6.7 6.848-6.7l8.397-.003a1.96 1.96 0 0 0 1.959-1.96V1.98A1.96 1.96 0 0 0 72.089.02z"/></symbol>
<symbol id="icon-svg-insta" viewBox="0 0 100 100"><title/><path fill="none" d="M-1-1h1026v1026H-1z"/><g><title/><g fill="#517fa4"><path d="M482 80.1c-103.6 7.7-198.1 50.3-272.3 122.8-97.6 95.2-144.4 230-127.1 365.4 21.6 169.3 141 310.3 305 360.2 126.8 38.6 267.9 15.7 375.4-60.8 132.1-94.1 200.8-250.2 180.4-410-21.6-169.3-141-310.3-305-360.2C589.6 82.6 532.7 76.3 482 80.1zm231 197.7c30.6 9.5 53.1 34.4 57.9 64.2.7 3.9 1.1 25.7 1.1 54.2V444H640.2l-7.7-9.5c-36.5-45-90-63.9-151-53.5-29.3 5-54.4 17.9-75.1 38.5-5.5 5.5-12.4 13.3-15.3 17.2l-5.4 7.3H253.9l.3-52.3.3-52.2 2.8-8c7.7-22.7 25.6-42 47-50.7 14.5-5.9 5.4-5.7 211.7-5.5l189.5.2 7.5 2.3zM532.2 439.4c35.1 6.9 65.4 35.2 74.2 69.1 10.9 42.5-6.2 84.4-44.5 108.8-22.2 14.1-53.5 17.6-79.6 8.7-30.5-10.4-54.8-36.7-63.5-68.9-3.1-11.2-3.1-34.2 0-46.4 8.8-35.3 38.5-63.9 74.2-71.2 8.8-1.8 30.1-1.8 39.2-.1zm-173.9 71.8c-.4 4-.8 15.6-.7 25.8.1 27.1 3.8 43.2 15.4 66.5 18.6 37.5 55.4 68.7 94.8 80.4 16.6 4.9 29.8 6.4 50.7 5.8 19.7-.6 27-1.8 43.5-7.3 21-7 39.9-18.7 57.8-35.9 25.6-24.5 41-52.2 46.9-84.5 2.3-12.5 2.3-41.5.1-51.3l-1.6-6.7H772v107.9c0 118.1.1 115.5-5.9 130.6-9.9 24.6-34.2 44.9-59.6 49.7-10.4 1.9-379.2 1.9-388 0-16.3-3.7-30-11.7-42.2-24.6-8.4-8.9-13.1-16-17-25.6-5.3-13.3-5.3-12.5-5.3-129.6V504h105.1l-.8 7.2z"/><path d="M664.3 319.6c-5.8 2.9-6.3 5.3-6.3 33.4 0 27.7.2 28.8 6.3 33.4l3.4 2.6h26.2c28.8 0 30.7-.3 33.6-6 2.3-4.4 2.2-53.7-.1-58.5-2.8-6.1-5.1-6.5-34.1-6.5-21.4 0-26.3.3-29 1.6z"/></g></g></symbol>
<symbol id="icon-svg-instagram-logo" viewBox="0 0 169.063 169.063"><path d="M122.406 0H46.654C20.929 0 0 20.93 0 46.655v75.752c0 25.726 20.929 46.655 46.654 46.655h75.752c25.727 0 46.656-20.93 46.656-46.655V46.655C169.063 20.93 148.133 0 122.406 0zm31.657 122.407c0 17.455-14.201 31.655-31.656 31.655H46.654C29.2 154.063 15 139.862 15 122.407V46.655C15 29.201 29.2 15 46.654 15h75.752c17.455 0 31.656 14.201 31.656 31.655v75.752z"/><path d="M84.531 40.97c-24.021 0-43.563 19.542-43.563 43.563 0 24.02 19.542 43.561 43.563 43.561s43.563-19.541 43.563-43.561c0-24.021-19.542-43.563-43.563-43.563zm0 72.123c-15.749 0-28.563-12.812-28.563-28.561 0-15.75 12.813-28.563 28.563-28.563s28.563 12.813 28.563 28.563c0 15.749-12.814 28.561-28.563 28.561zM129.921 28.251c-2.89 0-5.729 1.17-7.77 3.22a11.053 11.053 0 0 0-3.23 7.78c0 2.891 1.18 5.73 3.23 7.78 2.04 2.04 4.88 3.22 7.77 3.22 2.9 0 5.73-1.18 7.78-3.22 2.05-2.05 3.22-4.89 3.22-7.78 0-2.9-1.17-5.74-3.22-7.78-2.04-2.05-4.88-3.22-7.78-3.22z"/></symbol>
<symbol id="icon-svg-instagram" viewBox="0 0 512 512"><path d="M75 512h362c41.355 0 75-33.645 75-75V75c0-41.355-33.645-75-75-75H75C33.645 0 0 33.645 0 75v362c0 41.355 33.645 75 75 75zM30 75c0-24.813 20.188-45 45-45h362c24.813 0 45 20.188 45 45v362c0 24.813-20.188 45-45 45H75c-24.813 0-45-20.188-45-45zm0 0"/><path d="M256 391c74.438 0 135-60.563 135-135s-60.563-135-135-135-135 60.563-135 135 60.563 135 135 135zm0-240c57.898 0 105 47.102 105 105s-47.102 105-105 105-105-47.102-105-105 47.102-105 105-105zm0 0M406 151c24.813 0 45-20.188 45-45s-20.188-45-45-45-45 20.188-45 45 20.188 45 45 45zm0-60c8.27 0 15 6.73 15 15s-6.73 15-15 15-15-6.73-15-15 6.73-15 15-15zm0 0"/></symbol>
<symbol id="icon-svg-more" viewBox="0 0 22 16"><use fill="url(#more.svg-a)" xlink:href="#more.svg-b" transform="translate(-698 -3837)"/></symbol>
<symbol id="icon-svg-vk" viewBox="0 0 548.358 548.358"><path d="M545.451 400.298c-.664-1.431-1.283-2.618-1.858-3.569-9.514-17.135-27.695-38.167-54.532-63.102l-.567-.571-.284-.28-.287-.287h-.288c-12.18-11.611-19.893-19.418-23.123-23.415-5.91-7.614-7.234-15.321-4.004-23.13 2.282-5.9 10.854-18.36 25.696-37.397 7.807-10.089 13.99-18.175 18.556-24.267 32.931-43.78 47.208-71.756 42.828-83.939l-1.701-2.847c-1.143-1.714-4.093-3.282-8.846-4.712-4.764-1.427-10.853-1.663-18.278-.712l-82.224.568c-1.332-.472-3.234-.428-5.712.144l-3.713.859-1.431.715-1.136.859c-.952.568-1.999 1.567-3.142 2.995-1.137 1.423-2.088 3.093-2.848 4.996-8.952 23.031-19.13 44.444-30.553 64.238-7.043 11.803-13.511 22.032-19.418 30.693-5.899 8.658-10.848 15.037-14.842 19.126-4 4.093-7.61 7.372-10.852 9.849-3.237 2.478-5.708 3.525-7.419 3.142-1.715-.383-3.33-.763-4.859-1.143-2.663-1.714-4.805-4.045-6.42-6.995-1.622-2.95-2.714-6.663-3.285-11.136-.568-4.476-.904-8.326-1-11.563-.089-3.233-.048-7.806.145-13.706.198-5.903.287-9.897.287-11.991 0-7.234.141-15.085.424-23.555.288-8.47.521-15.181.716-20.125.194-4.949.284-10.185.284-15.705s-.336-9.849-1-12.991a44.442 44.442 0 0 0-2.99-9.137c-1.335-2.95-3.289-5.232-5.853-6.852-2.569-1.618-5.763-2.902-9.564-3.856-10.089-2.283-22.936-3.518-38.547-3.71-35.401-.38-58.148 1.906-68.236 6.855-3.997 2.091-7.614 4.948-10.848 8.562-3.427 4.189-3.905 6.475-1.431 6.851 11.422 1.711 19.508 5.804 24.267 12.275l1.715 3.429c1.334 2.474 2.666 6.854 3.999 13.134 1.331 6.28 2.19 13.227 2.568 20.837.95 13.897.95 25.793 0 35.689-.953 9.9-1.853 17.607-2.712 23.127-.859 5.52-2.143 9.993-3.855 13.418-1.715 3.426-2.856 5.52-3.428 6.28-.571.76-1.047 1.239-1.425 1.427a21.387 21.387 0 0 1-7.71 1.431c-2.667 0-5.901-1.334-9.707-4-3.805-2.666-7.754-6.328-11.847-10.992-4.093-4.665-8.709-11.184-13.85-19.558-5.137-8.374-10.467-18.271-15.987-29.691l-4.567-8.282c-2.855-5.328-6.755-13.086-11.704-23.267-4.952-10.185-9.329-20.037-13.134-29.554-1.521-3.997-3.806-7.04-6.851-9.134l-1.429-.859c-.95-.76-2.475-1.567-4.567-2.427a30.301 30.301 0 0 0-6.567-1.854l-78.229.568c-7.994 0-13.418 1.811-16.274 5.428l-1.143 1.711c-.571.953-.859 2.475-.859 4.57 0 2.094.571 4.664 1.714 7.707 11.42 26.84 23.839 52.725 37.257 77.659 13.418 24.934 25.078 45.019 34.973 60.237 9.897 15.229 19.985 29.602 30.264 43.112 10.279 13.515 17.083 22.176 20.412 25.981 3.333 3.812 5.951 6.662 7.854 8.565l7.139 6.851c4.568 4.569 11.276 10.041 20.127 16.416 8.853 6.379 18.654 12.659 29.408 18.85 10.756 6.181 23.269 11.225 37.546 15.126 14.275 3.905 28.169 5.472 41.684 4.716h32.834c6.659-.575 11.704-2.669 15.133-6.283l1.136-1.431c.764-1.136 1.479-2.901 2.139-5.276.668-2.379 1-5 1-7.851-.195-8.183.428-15.558 1.852-22.124 1.423-6.564 3.045-11.513 4.859-14.846 1.813-3.33 3.859-6.14 6.136-8.418 2.282-2.283 3.908-3.666 4.862-4.142.948-.479 1.705-.804 2.276-.999 4.568-1.522 9.944-.048 16.136 4.429 6.187 4.473 11.99 9.996 17.418 16.56 5.425 6.57 11.943 13.941 19.555 22.124 7.617 8.186 14.277 14.271 19.985 18.274l5.708 3.426c3.812 2.286 8.761 4.38 14.853 6.283 6.081 1.902 11.409 2.378 15.984 1.427l73.087-1.14c7.229 0 12.854-1.197 16.844-3.572 3.998-2.379 6.373-5 7.139-7.851.764-2.854.805-6.092.145-9.712-.677-3.611-1.344-6.136-2.008-7.563z"/></symbol>
</svg>